<?xml version="1.0" encoding="utf-8"?>
<!-- Generator: Adobe Illustrator 16.0.0, SVG Export Plug-In . SVG Version: 6.00 Build 0)  -->
<!DOCTYPE svg PUBLIC "-//W3C//DTD SVG 1.1//EN" "http://www.w3.org/Graphics/SVG/1.1/DTD/svg11.dtd">
<svg version="1.1" id="Calque_1" xmlns="http://www.w3.org/2000/svg" xmlns:xlink="http://www.w3.org/1999/xlink" x="0px" y="0px"
	 width="28.673px" height="31.545px" viewBox="0 0 28.673 31.545" enable-background="new 0 0 28.673 31.545" xml:space="preserve">
<path fill="#800000018000000180000001" d="M28.317,2.877h-4.913V0.386c0-0.21-0.175-0.386-0.386-0.386h-2.632
	c-0.211,0-0.386,0.176-0.386,0.386v2.491H8.702V0.386C8.702,0.176,8.527,0,8.316,0H5.684c-0.21,0-0.386,0.176-0.386,0.386v2.491
	H0.386C0.175,2.877,0,3.053,0,3.263v27.896c0,0.211,0.175,0.387,0.386,0.387h27.896c0.21,0,0.386-0.176,0.386-0.387V3.263
	C28.703,3.053,28.527,2.877,28.317,2.877 M25.194,27.861c0,0.211-0.175,0.386-0.386,0.386H3.895c-0.211,0-0.386-0.175-0.386-0.386
	V11.334c0-0.211,0.175-0.386,0.386-0.386h20.948c0.212,0,0.387,0.175,0.387,0.386v16.527H25.194z"/>
</svg>
