<?xml version="1.0" encoding="utf-8"?>
<!-- Generator: Adobe Illustrator 16.0.0, SVG Export Plug-In . SVG Version: 6.00 Build 0)  -->
<!DOCTYPE svg PUBLIC "-//W3C//DTD SVG 1.1//EN" "http://www.w3.org/Graphics/SVG/1.1/DTD/svg11.dtd">
<svg version="1.1" id="Calque_1" xmlns="http://www.w3.org/2000/svg" xmlns:xlink="http://www.w3.org/1999/xlink" x="0px" y="0px"
	 width="37.76px" height="51.61px" viewBox="0 0 37.76 51.61" enable-background="new 0 0 37.76 51.61" xml:space="preserve">
<path fill="#800000018000000180000001" d="M18.88,0C8.45,0,0,8.45,0,18.88c0,1.38,0.15,2.73,0.43,4.02c0.05,0.24,0.1,0.47,0.16,0.7
	c2.63,10.81,18.29,28.01,18.29,28.01c9.37-10.47,14.08-18.26,16.45-23.46c0-0.01,0-0.021,0.01-0.03c1.47-3.25,2.03-5.48,2.24-6.7
	c0.02-0.12,0.03-0.17,0.03-0.18c0.04-0.31,0.069-0.63,0.09-0.95c0.04-0.46,0.06-0.94,0.06-1.41C37.76,8.45,29.31,0,18.88,0
	 M18.88,28.12c-0.37,0-0.729-0.02-1.09-0.06c-4.83-0.54-8.58-4.64-8.58-9.61c0-5.34,4.33-9.67,9.67-9.67s9.67,4.33,9.67,9.67
	C28.55,23.79,24.22,28.12,18.88,28.12"/>
</svg>
