<?xml version="1.0" encoding="utf-8"?>
<!-- Generator: Adobe Illustrator 16.0.0, SVG Export Plug-In . SVG Version: 6.00 Build 0)  -->
<!DOCTYPE svg PUBLIC "-//W3C//DTD SVG 1.1//EN" "http://www.w3.org/Graphics/SVG/1.1/DTD/svg11.dtd">
<svg version="1.1" id="Calque_1" xmlns="http://www.w3.org/2000/svg" xmlns:xlink="http://www.w3.org/1999/xlink" x="0px" y="0px"
	 width="24.629px" height="28.639px" viewBox="0 0 24.629 28.639" enable-background="new 0 0 24.629 28.639" xml:space="preserve">
<path fill="#800000018000000180000001" d="M7.583,3.185v0.822H7.576v17.498c-0.914-0.409-2.033-0.575-3.203-0.409
	c-2.691,0.38-4.636,2.362-4.344,4.428c0.292,2.066,2.709,3.433,5.4,3.053c2.542-0.359,4.417-2.148,4.371-4.086h0.001V10.179
	c4.884-1.449,9.837-2.055,12.602-2.297v10.719c-0.914-0.409-2.032-0.575-3.203-0.41c-2.69,0.381-4.635,2.363-4.343,4.43
	c0.291,2.064,2.709,3.432,5.399,3.052c2.542-0.359,4.417-2.148,4.371-4.086h0.002V7.729V1.104V0.06
	C13.55-0.509,7.583,3.185,7.583,3.185"/>
</svg>
